<?xml version="1.0" standalone="no"?><!DOCTYPE svg PUBLIC "-//W3C//DTD SVG 1.1//EN" "http://www.w3.org/Graphics/SVG/1.1/DTD/svg11.dtd"><svg t="1721269081684" class="icon" viewBox="0 0 1024 1024" version="1.1" xmlns="http://www.w3.org/2000/svg" p-id="1034" xmlns:xlink="http://www.w3.org/1999/xlink" width="200" height="200"><path d="M0 0h1024v1024H0z" fill="#FFFFFF" fill-opacity="0" p-id="1035"></path><path d="M864 800L704 640c38.4-51.2 64-115.2 64-192 0-179.2-140.8-320-320-320S128 268.8 128 448s140.8 320 320 320c70.4 0 134.4-25.6 192-64l160 160c12.8 12.8 32 12.8 44.8 0l25.6-25.6c6.4-6.4 6.4-25.6-6.4-38.4z m-416-128c-121.6 0-224-102.4-224-224S326.4 224 448 224s224 102.4 224 224-102.4 224-224 224z" fill="#4E5969" p-id="1036"></path></svg>