<?xml version="1.0" standalone="no"?><!DOCTYPE svg PUBLIC "-//W3C//DTD SVG 1.1//EN" "http://www.w3.org/Graphics/SVG/1.1/DTD/svg11.dtd"><svg t="1721269055945" class="icon" viewBox="0 0 1024 1024" version="1.1" xmlns="http://www.w3.org/2000/svg" p-id="892" xmlns:xlink="http://www.w3.org/1999/xlink" width="200" height="200"><path d="M511.936 101.312a410.688 410.688 0 1 1 0 821.376 410.688 410.688 0 0 1 0-821.376z m0 93.376a317.312 317.312 0 1 0 0 634.624 317.312 317.312 0 0 0 0-634.624z m32.256 130.624c10.24 0 18.624 8.32 18.624 18.688v130.688h117.12c10.24 0 18.624 8.32 18.624 18.624v48.512c0 10.24-8.32 18.624-18.624 18.624H493.248a18.688 18.688 0 0 1-18.688-18.624V344c0-10.304 8.384-18.688 18.688-18.688h50.944z" fill="#4E5969" p-id="893"></path></svg>