<?xml version="1.0" standalone="no"?><!DOCTYPE svg PUBLIC "-//W3C//DTD SVG 1.1//EN" "http://www.w3.org/Graphics/SVG/1.1/DTD/svg11.dtd"><svg t="1721269088683" class="icon" viewBox="0 0 1024 1024" version="1.1" xmlns="http://www.w3.org/2000/svg" p-id="1177" xmlns:xlink="http://www.w3.org/1999/xlink" width="200" height="200"><path d="M384 128c11.776 0 21.312 9.6 21.312 21.312V192h213.376v-42.688C618.688 137.6 628.224 128 640 128h42.688c11.776 0 21.312 9.6 21.312 21.312V192h128c23.552 0 42.688 20.16 42.688 45.056v592.576c0 24.896-19.136 45.056-42.688 45.056H192c-23.552 0-42.688-20.16-42.688-45.056v-592.64C149.312 212.224 168.448 192 192 192h128v-42.688C320 137.6 329.6 128 341.312 128H384z m405.312 384H234.688v277.312h554.624V512zM320 277.312H234.688v149.376h554.624V277.312H704V320c0 11.776-9.6 21.312-21.312 21.312H640A21.312 21.312 0 0 1 618.688 320v-42.688H405.312V320c0 11.776-9.536 21.312-21.312 21.312h-42.688A21.312 21.312 0 0 1 320 320v-42.688z" fill="#4E5969" p-id="1178"></path></svg>